<svg width="1078" height="795" viewBox="0 0 1078 795" fill="none" xmlns="http://www.w3.org/2000/svg">
<path d="M1031.21 177.697C942.971 92.1129 821.76 197.744 759.448 211.108C646.345 237.837 666.243 164.81 507.061 108.012C347.879 51.2132 263.525 158.551 264.622 201.562C266.717 283.657 332.17 295.113 264.622 355.252C197.451 415.057 189.309 320.99 186.131 284.269L186.078 283.658C182.937 247.383 128.48 297.977 118.531 432.575C108.582 567.173 329.028 666.928 443.178 612.994C557.329 559.059 678.81 652.132 722.271 724.204C765.732 796.276 961.568 827.778 1031.21 747.592C1100.85 667.406 1048.49 596.765 984.084 532.33C919.678 467.895 1178.35 320.41 1031.21 177.697Z" fill="#FFFDF0"/>
<path d="M632.692 277.532L623.507 282.49C622.266 280.704 620.01 277.012 620.922 276.53C621.834 276.047 626.485 273.336 628.697 272.041L632.692 277.532Z" fill="#5FB357"/>
<path d="M643.3 238.128L644.565 248.488C642.449 248.993 638.188 249.745 638.072 248.72C637.955 247.695 637.128 242.375 636.729 239.843L643.3 238.128Z" fill="#5FB357"/>
<path d="M609.043 241.996L600.819 248.424C599.296 246.871 596.454 243.61 597.272 242.981C598.09 242.353 602.221 238.9 604.184 237.252L609.043 241.996Z" fill="#5FB357"/>
<path d="M998.562 513.638C1006.26 519.486 1010.85 536.301 1010.85 536.849C1010.3 536.849 999.845 522.228 994.344 518.39C988.843 514.552 985.176 512.541 985.726 510.165C986.276 507.79 990.86 507.79 998.562 513.638Z" fill="#E2DD8D"/>
<path d="M1012.2 508.32C1016.16 517.144 1012.13 534.135 1011.87 534.618C1011.38 534.356 1009.21 516.496 1006.22 510.492C1003.23 504.488 1000.97 500.968 1002.59 499.139C1004.21 497.309 1008.24 499.496 1012.2 508.32Z" fill="#E2DD8D"/>
<path d="M1043.76 524.16C1034.11 524.734 1020.91 536.165 1020.6 536.621C1021.06 536.927 1037.9 530.59 1044.6 530.463C1051.31 530.336 1055.47 530.707 1056.34 528.424C1057.22 526.142 1053.42 523.587 1043.76 524.16Z" fill="#E2DD8D"/>
<path d="M1027.33 507.392C1020.29 514.026 1017.5 531.263 1017.56 531.81C1018.11 531.752 1026.96 516.087 1032.02 511.687C1037.08 507.287 1040.51 504.9 1039.72 502.589C1038.92 500.279 1034.37 500.758 1027.33 507.392Z" fill="#E2DD8D"/>
<path d="M1039.38 562.996C1037.35 554.553 1026.72 548.439 1021.65 546.438C1020.02 546.438 1021.65 548.803 1026.35 552.624C1031.06 556.445 1033.59 565.179 1034.31 572.276C1035.04 579.372 1036.49 582.83 1039.38 580.464C1042.27 578.099 1041.91 573.55 1039.38 562.996Z" fill="#E2DD8D"/>
<path d="M1025.61 570.043C1026.9 561.396 1019.23 551.646 1015.23 547.853C1013.71 547.233 1014.34 550.059 1017.31 555.413C1020.27 560.766 1019.35 569.877 1017.34 576.773C1015.34 583.668 1015.39 587.444 1019 586.338C1022.61 585.232 1023.99 580.851 1025.61 570.043Z" fill="#E2DD8D"/>
<path d="M1053.74 546.344C1047.1 541.169 1031.17 540.738 1024.03 541.169C1024.03 543.202 1031.97 543.942 1037.69 546.344C1043.41 548.747 1049.68 558.357 1055.58 560.021C1061.49 561.684 1062.04 552.813 1053.74 546.344Z" fill="#E2DD8D"/>
<path d="M984.941 525.002C991.592 526.445 1002.99 535.1 1007.85 539.247C1003.54 537.324 993.698 533.153 988.821 531.854C982.724 530.231 973.671 532.035 971.639 528.428C969.607 524.822 976.627 523.199 984.941 525.002Z" fill="#E2DD8D"/>
<path d="M977.799 547.157C983.77 544.001 998.07 543.378 1004.47 543.461C999.952 544.742 989.776 547.837 985.239 549.966C979.567 552.627 973.918 559.838 970.01 558.353C966.101 556.869 970.334 551.103 977.799 547.157Z" fill="#E2DD8D"/>
<path d="M983.299 561.483C987.663 556.328 1000.7 550.417 1006.67 548.107C1002.95 550.981 994.666 557.648 991.249 561.315C986.979 565.899 984.426 574.696 980.247 574.776C976.067 574.856 977.844 567.928 983.299 561.483Z" fill="#E2DD8D"/>
<path d="M994.067 569.922C996.975 563.826 1008.08 554.792 1013.27 551.038C1010.4 554.764 1004.08 563.32 1001.71 567.736C998.75 573.256 998.52 582.413 994.498 583.555C990.476 584.696 990.432 577.543 994.067 569.922Z" fill="#E2DD8D"/>
<path d="M142.439 305.608C139.153 297.008 130.172 311.73 126.092 320.166C125.029 316.741 121.828 318.168 120.36 319.309C119.569 319.351 119.73 317.486 126.698 309.69C135.409 299.945 141.045 297.906 145.764 302.647C150.483 307.387 148.984 319.652 155.024 319.738C161.063 319.825 176.488 307.578 183.731 309.574C190.973 311.57 187.839 320.323 190.345 331.506C192.851 342.688 199.012 340.679 206.558 337.437C212.594 334.843 220.271 339.632 223.355 342.351L219.142 351.568C216.757 348.889 209.726 344.453 200.683 348.134C189.379 352.736 182.332 329.202 182.414 318.695C182.497 308.189 168.392 315.782 158.478 323.617C148.564 331.453 146.547 316.357 142.439 305.608Z" fill="#156255"/>
<path d="M253.25 55.559C262.221 53.4928 248.882 42.5629 241.091 37.3562C244.63 36.7768 243.66 33.4092 242.732 31.7979C242.8 31.0089 244.625 31.4257 251.383 39.4048C259.83 49.3787 261.07 55.2431 255.723 59.2613C250.375 63.2794 238.436 60.1002 237.515 66.0694C236.595 72.0386 246.592 89.0085 243.614 95.9058C240.636 102.803 232.4 98.4886 220.978 99.4251C209.557 100.362 210.695 106.741 212.863 114.662C214.597 120.999 208.793 127.94 205.674 130.619L197.128 125.173C200.111 123.181 205.476 116.83 203.08 107.365C200.085 95.5339 224.367 91.8072 234.762 93.3413C245.156 94.8753 239.586 79.8566 233.196 68.9546C226.806 58.0527 242.036 58.1418 253.25 55.559Z" fill="#B6AF46"/>
<path d="M460.073 90.1844C433.707 65.9538 438.336 24.8696 446.915 10.7151C400.774 51.9128 426.887 100.498 439.81 107.382C467.549 128.61 507.874 118.631 522.246 94.1223C491.797 110.55 468.11 98.3417 460.073 90.1844Z" fill="#EDE58E"/>
<path d="M370.333 153.928C357.085 164.021 349.199 193.041 349.199 193.987C350.146 193.987 368.125 168.753 377.588 162.129C387.051 155.505 393.36 152.035 392.413 147.934C391.467 143.834 383.581 143.834 370.333 153.928Z" fill="#165B50"/>
<path d="M347.257 144.914C340.439 160.11 347.371 189.372 347.823 190.203C348.655 189.751 352.398 158.994 357.548 148.654C362.697 138.315 366.583 132.253 363.793 129.103C361.003 125.952 354.075 129.719 347.257 144.914Z" fill="#165B50"/>
<path d="M292.893 172.194C309.518 173.181 332.251 192.867 332.779 193.653C331.994 194.18 302.995 183.267 291.446 183.048C279.897 182.829 272.726 183.468 271.224 179.537C269.722 175.606 276.267 171.207 292.893 172.194Z" fill="#165B50"/>
<path d="M321.192 143.317C333.311 154.742 338.117 184.428 338.018 185.369C337.077 185.27 321.836 158.292 313.119 150.714C304.401 143.136 298.49 139.026 299.86 135.047C301.23 131.067 309.073 131.893 321.192 143.317Z" fill="#165B50"/>
<path d="M300.308 238.778C303.841 224.142 322.388 213.544 331.22 210.074C334.058 210.074 331.22 214.175 323.02 220.799C314.82 227.423 310.403 242.564 309.141 254.865C307.879 267.167 305.355 273.16 300.308 269.06C295.261 264.959 295.892 257.073 300.308 238.778Z" fill="#165B50"/>
<path d="M324.161 251.216C321.937 236.325 335.143 219.535 342.025 213.001C344.655 211.935 343.566 216.801 338.455 226.021C333.344 235.24 334.939 250.931 338.391 262.806C341.843 274.681 341.755 281.183 335.538 279.279C329.32 277.375 326.942 269.83 324.161 251.216Z" fill="#165B50"/>
<path d="M275.704 210.392C287.06 201.56 314.292 200.823 326.488 201.56C326.488 205.029 312.926 206.291 303.147 210.392C293.369 214.492 282.644 230.895 272.55 233.733C262.456 236.572 261.51 221.432 275.704 210.392Z" fill="#165B50"/>
<path d="M394.306 173.483C382.95 176.006 363.499 191.147 355.192 198.402C362.552 195.037 379.354 187.74 387.682 185.469C398.091 182.63 413.547 185.785 417.017 179.476C420.487 173.167 408.5 170.329 394.306 173.483Z" fill="#165B50"/>
<path d="M406.493 211.801C396.209 206.364 371.582 205.292 360.555 205.435C368.341 207.642 385.866 212.971 393.68 216.638C403.448 221.221 413.176 233.639 419.907 231.082C426.638 228.525 419.348 218.596 406.493 211.801Z" fill="#165B50"/>
<path d="M397.023 236.471C389.508 227.592 367.058 217.413 356.773 213.434C363.174 218.385 377.448 229.865 383.331 236.181C390.686 244.076 395.082 259.226 402.28 259.363C409.479 259.501 406.417 247.57 397.023 236.471Z" fill="#165B50"/>
<path d="M378.473 251.004C373.465 240.505 354.345 224.947 345.411 218.481C350.342 224.898 361.223 239.634 365.306 247.239C370.408 256.746 370.804 272.515 377.73 274.481C384.657 276.446 384.733 264.128 378.473 251.004Z" fill="#165B50"/>
<path d="M50.3511 442.602H193.138C206.888 412.458 273.786 376.277 305.516 361.954L581.835 355.344C615.681 356.93 630.753 407.567 634.058 432.687C653.626 441.148 650.805 497.249 645.296 519.945H600.345L480.034 517.962L460.863 556.303H205.037L193.138 518.623H3.41652C-3.85504 505.402 6.72177 474.994 10.6881 461.773C14.6544 448.552 27.2143 442.602 50.3511 442.602Z" fill="#D9D374"/>
<path d="M621.504 465.738H647.946C654.292 472.613 651.472 485.79 649.268 491.519H623.487C621.064 489.756 616.348 484.909 616.877 479.62C617.406 474.332 620.182 468.162 621.504 465.738Z" fill="#08221D"/>
<path d="M0.11745 500.113C-0.940231 493.239 5.40585 475.214 8.7111 467.061C12.6774 461.111 35.1532 463.095 44.4079 463.095C53.6626 463.095 59.612 462.434 56.3068 468.383C53.0015 474.333 55.6457 480.282 53.0015 489.537C50.3573 498.791 41.7637 503.419 30.5258 502.097C19.2879 500.775 1.43955 508.707 0.11745 500.113Z" fill="#767124"/>
<path d="M2.93172 499.983C-0.882769 497.636 5.98821 476.754 9.90051 466.606C14.6688 461.472 46.5781 464.039 50.9794 464.773C55.3808 465.506 47.3117 490.814 42.5435 494.848C37.7754 498.883 31.907 498.149 22.7375 496.315C13.5681 494.482 7.69984 502.917 2.93172 499.983Z" fill="#BEB743"/>
<path d="M5.86539 493.747C2.63774 492.573 8.67735 476.386 12.1006 468.439C13.2007 466.606 15.0351 465.872 16.5022 467.339C17.9693 468.806 15.4018 469.54 13.2012 475.775C11.0005 482.01 9.89995 495.214 5.86539 493.747Z" fill="#DAD369"/>
<path d="M15.2336 483.04C13.2586 482.315 16.9543 472.312 19.049 467.401C19.7222 466.267 20.8447 465.814 21.7424 466.721C22.6401 467.627 21.0691 468.081 19.7225 471.934C18.3759 475.787 17.7024 483.947 15.2336 483.04Z" fill="#DAD369"/>
<path d="M21.1027 490.346C19.1277 489.305 22.8234 474.952 24.9182 467.906C25.5913 466.28 26.7138 465.629 27.6115 466.93C28.5093 468.231 26.9382 468.882 25.5916 474.41C24.245 479.939 23.5715 491.646 21.1027 490.346Z" fill="#DAD369"/>
<path fill-rule="evenodd" clip-rule="evenodd" d="M364.859 481.454C368.061 463.845 377.735 446.591 382.181 440.145L383.555 441.092C379.187 447.426 369.646 464.458 366.502 481.753C364.529 492.606 362.879 510.409 362.549 525.747C362.384 533.417 362.55 540.437 363.163 545.649C363.47 548.26 363.885 550.375 364.408 551.878C364.67 552.631 364.947 553.194 365.226 553.582C365.506 553.972 365.746 554.128 365.921 554.181L365.441 555.78C364.789 555.584 364.275 555.12 363.87 554.556C363.463 553.989 363.122 553.263 362.832 552.427C362.25 550.755 361.818 548.5 361.505 545.844C360.879 540.52 360.714 533.41 360.88 525.711C361.211 510.309 362.866 492.416 364.859 481.454Z" fill="#292927"/>
<path d="M447.125 462.435H437.871C435.226 464.022 436.769 466.181 437.871 467.062H445.803L449.108 469.046H462.991C464.577 469.046 465.855 467.723 466.296 467.062H478.856C480.442 466.005 479.517 463.537 478.856 462.435H466.296C466.296 460.849 464.533 459.13 463.652 458.469H451.753C449.108 458.998 447.566 461.333 447.125 462.435Z" fill="#787220"/>
<path d="M314.916 462.435H305.661C303.017 464.022 304.559 466.181 305.661 467.062H313.594L316.899 469.046H330.781C332.368 469.046 333.646 467.723 334.086 467.062H346.646C348.233 466.005 347.307 463.537 346.646 462.435H334.086C334.086 460.849 332.324 459.13 331.442 458.469H319.543C316.899 458.998 315.357 461.333 314.916 462.435Z" fill="#787220"/>
<path d="M55.9219 517.057H4.35994C2.15644 524.328 -0.928461 540.722 4.35994 548.126C9.64834 555.53 33.8869 578.094 45.3451 588.45H173.589H479.655L583.44 581.178C602.17 578.094 641.745 569.941 650.206 562.008C658.668 554.075 658.579 528.735 657.478 517.057H602.61C577.226 481.096 549.451 480.582 523.284 482.021C470.786 484.909 455.857 538.651 460.485 556.058L211.012 554.403C198.319 494.644 150.232 481.801 130.621 482.021C93.0729 478.319 65.1766 503.836 55.9219 517.057Z" fill="#958E2B"/>
<path d="M591.094 564.898C591.094 596.661 565.345 622.409 533.583 622.409C501.82 622.409 476.071 596.661 476.071 564.898C476.071 533.135 501.82 507.387 533.583 507.387C565.345 507.387 591.094 533.135 591.094 564.898Z" fill="#010E0C"/>
<path d="M573.905 564.898C573.905 587.169 555.852 605.222 533.581 605.222C511.311 605.222 493.257 587.169 493.257 564.898C493.257 542.628 511.311 524.574 533.581 524.574C555.852 524.574 573.905 542.628 573.905 564.898Z" fill="#4F5D73"/>
<path d="M565.973 564.236C565.973 582.491 551.175 597.289 532.921 597.289C514.666 597.289 499.868 582.491 499.868 564.236C499.868 545.982 514.666 531.184 532.921 531.184C551.175 531.184 565.973 545.982 565.973 564.236Z" fill="#CCD4E0"/>
<path d="M521.026 564.236C521.026 566.426 519.25 568.202 517.06 568.202C514.869 568.202 513.093 566.426 513.093 564.236C513.093 562.045 514.869 560.27 517.06 560.27C519.25 560.27 521.026 562.045 521.026 564.236Z" fill="#687589"/>
<path d="M528.957 551.013C528.957 553.204 527.181 554.979 524.99 554.979C522.8 554.979 521.024 553.204 521.024 551.013C521.024 548.823 522.8 547.047 524.99 547.047C527.181 547.047 528.957 548.823 528.957 551.013Z" fill="#687589"/>
<path d="M547.467 550.896C547.467 553.087 545.691 554.862 543.501 554.862C541.31 554.862 539.535 553.087 539.535 550.896C539.535 548.705 541.31 546.93 543.501 546.93C545.691 546.93 547.467 548.705 547.467 550.896Z" fill="#687589"/>
<path d="M552.75 565.56C552.75 567.751 550.975 569.526 548.784 569.526C546.594 569.526 544.818 567.751 544.818 565.56C544.818 563.37 546.594 561.594 548.784 561.594C550.975 561.594 552.75 563.37 552.75 565.56Z" fill="#687589"/>
<path d="M544.82 578.779C544.82 580.969 543.044 582.745 540.854 582.745C538.663 582.745 536.887 580.969 536.887 578.779C536.887 576.588 538.663 574.812 540.854 574.812C543.044 574.812 544.82 576.588 544.82 578.779Z" fill="#687589"/>
<path d="M527.634 577.455C527.634 579.645 525.858 581.421 523.668 581.421C521.477 581.421 519.702 579.645 519.702 577.455C519.702 575.264 521.477 573.488 523.668 573.488C525.858 573.488 527.634 575.264 527.634 577.455Z" fill="#687589"/>
<path d="M185.209 564.898C185.209 596.661 159.461 622.409 127.698 622.409C95.9352 622.409 70.1865 596.661 70.1865 564.898C70.1865 533.135 95.9352 507.387 127.698 507.387C159.461 507.387 185.209 533.135 185.209 564.898Z" fill="#010E0C"/>
<path d="M168.022 564.898C168.022 587.169 149.968 605.222 127.698 605.222C105.427 605.222 87.3735 587.169 87.3735 564.898C87.3735 542.628 105.427 524.574 127.698 524.574C149.968 524.574 168.022 542.628 168.022 564.898Z" fill="#4F5D73"/>
<path d="M160.093 564.236C160.093 582.491 145.295 597.289 127.04 597.289C108.786 597.289 93.9878 582.491 93.9878 564.236C93.9878 545.982 108.786 531.184 127.04 531.184C145.295 531.184 160.093 545.982 160.093 564.236Z" fill="#CCD4E0"/>
<path d="M115.141 564.236C115.141 566.426 113.365 568.202 111.175 568.202C108.984 568.202 107.208 566.426 107.208 564.236C107.208 562.045 108.984 560.27 111.175 560.27C113.365 560.27 115.141 562.045 115.141 564.236Z" fill="#4F5D73"/>
<path d="M123.071 551.013C123.071 553.204 121.296 554.979 119.105 554.979C116.914 554.979 115.139 553.204 115.139 551.013C115.139 548.823 116.914 547.047 119.105 547.047C121.296 547.047 123.071 548.823 123.071 551.013Z" fill="#4F5D73"/>
<path d="M141.583 551.013C141.583 553.204 139.807 554.979 137.616 554.979C135.426 554.979 133.65 553.204 133.65 551.013C133.65 548.823 135.426 547.047 137.616 547.047C139.807 547.047 141.583 548.823 141.583 551.013Z" fill="#4F5D73"/>
<path d="M146.875 565.56C146.875 567.751 145.1 569.526 142.909 569.526C140.719 569.526 138.943 567.751 138.943 565.56C138.943 563.37 140.719 561.594 142.909 561.594C145.1 561.594 146.875 563.37 146.875 565.56Z" fill="#4F5D73"/>
<path d="M138.937 578.779C138.937 580.969 137.161 582.745 134.97 582.745C132.78 582.745 131.004 580.969 131.004 578.779C131.004 576.588 132.78 574.812 134.97 574.812C137.161 574.812 138.937 576.588 138.937 578.779Z" fill="#4F5D73"/>
<path d="M121.746 577.455C121.746 579.645 119.97 581.421 117.78 581.421C115.589 581.421 113.813 579.645 113.813 577.455C113.813 575.264 115.589 573.488 117.78 573.488C119.97 573.488 121.746 575.264 121.746 577.455Z" fill="#4F5D73"/>
<path d="M607.548 368.25L299.573 365.921C283.179 363.805 306.404 352.259 320.065 346.75C401.595 346.971 566.637 347.279 574.57 346.75C582.502 346.221 602.668 359.1 607.548 368.25Z" fill="#D9D374"/>
<path d="M304.201 346.75C304.201 343.464 306.865 340.801 310.151 340.801H583.825C587.111 340.801 589.775 343.464 589.775 346.75C589.775 350.036 587.111 352.7 583.825 352.7H310.151C306.865 352.7 304.201 350.036 304.201 346.75Z" fill="#A69F37"/>
<path d="M361.109 380.336C361.109 380.336 297.159 377.511 293.232 379.113C277.466 385.544 271.473 391.808 259.573 404.781C248.017 417.381 235.452 442.06 235.452 442.06L347.085 441.449L361.109 380.336Z" fill="#B9B359"/>
<path d="M474.57 381.059H376.243L371.52 404.848L364.772 440.837H477.453L485.55 434.737L474.57 381.059Z" fill="#B9B359"/>
<path d="M432.796 437.631V383.348H464.871L473.875 437.631H432.796Z" fill="#A29C45"/>
<path d="M598.871 381.059L506.928 381.061L501.408 434.739L506.928 440.837H605.354L612.426 434.737L598.871 381.059Z" fill="#B9B359"/>
<path d="M561.903 437.631V383.348H593.979L602.982 437.631H561.903Z" fill="#A19C45"/>
<path d="M745.718 739.243C742.777 738.949 745.228 731.36 746.821 727.602L780.766 732.503V737.16C779.908 737.487 777.654 738.361 775.497 739.243C772.801 740.346 770.472 748.066 763.733 747.821C756.993 747.576 749.395 739.611 745.718 739.243Z" fill="#FC6F66"/>
<path d="M765.536 744.708C760.536 746.767 748.666 739.275 743.356 735.272C741.313 738.417 736.91 746.129 735.635 751.816C734.042 758.923 738.944 768.359 735.635 771.178C732.327 773.996 734.778 778.775 735.635 780.246C736.322 781.422 801.523 780.736 834.038 780.246C835.713 777.101 838.548 769.903 836.489 766.276C833.916 761.742 813.574 755.982 802.667 750.713C791.761 745.443 785.756 735.272 783.673 733.679C781.59 732.086 779.016 735.272 774.237 736.497C769.458 737.723 771.786 742.135 765.536 744.708Z" fill="#165B50"/>
<path d="M795.104 608.244C797.359 595.303 742.941 512.496 715.45 472.71C716.145 464.336 720.524 447.736 732.484 448.324C744.444 448.912 793.266 472.016 816.182 483.494C815.937 487.824 815.593 497.562 816.182 501.876C816.917 507.268 841.426 566.947 848.043 578.834C854.661 590.72 856.989 602.852 855.151 615.597C853.313 628.341 826.475 664.247 809.809 684.467C796.476 700.643 786.281 724.048 782.85 733.729C769.125 737.553 751.887 731.074 744.983 727.357C746.985 720.045 754.125 697.603 766.674 666.33C782.359 627.239 792.285 624.42 795.104 608.244Z" fill="#021C18"/>
<path d="M673.664 456.166C667.389 454.304 663.043 458.331 661.654 460.578C660.478 432.736 708.221 404.779 732.24 394.281C729.952 407.679 724.446 437.343 720.721 448.813C716.064 463.151 681.506 458.495 673.664 456.166Z" fill="#4E4902"/>
<path d="M599.156 568.663C594.94 573.859 589.883 574.831 587.882 574.667C583.429 571.277 574.426 562.952 574.034 556.776C573.544 549.056 593.396 539.865 597.563 540.6C600.896 541.188 603.527 544.113 604.425 545.502C604.425 551.057 603.371 563.467 599.156 568.663Z" fill="#FC6F66"/>
<path d="M698.049 498.937C699.225 471.389 708.587 454.29 713.121 449.184C745.571 437.518 780.97 458.947 794.613 471.119C785.872 497.793 767.237 554.842 762.629 569.645C756.869 588.149 749.027 620.623 732.483 633.736C715.94 646.848 693.882 637.535 678.809 630.672C666.75 625.182 614.31 592.602 589.597 576.998C588.028 560.92 598.502 548.894 603.934 544.891C609.326 548.772 624.056 557.44 639.84 561.067C659.57 565.601 689.593 581.532 693.882 582.022C698.171 582.512 696.578 533.372 698.049 498.937Z" fill="#072B25"/>
<path d="M581.264 558.859C581.558 567.976 587.187 572.625 589.965 573.809C591.558 577.731 582.98 590.72 575.994 597.583C569.009 604.445 565.088 614.004 562.637 620.254C560.186 626.503 555.53 627.729 551.363 627.729C547.197 627.729 538.129 622.827 538.006 611.921C537.884 601.014 539.599 584.838 544.623 577.363C549.648 569.888 549.28 564.373 551.363 547.952C553.447 531.531 561.902 524.914 568.52 524.914C575.137 524.914 574.769 528.1 581.264 528.345C587.759 528.59 599.523 539.007 600.749 541.825C601.974 544.644 580.897 547.462 581.264 558.859Z" fill="#165B50"/>
<path d="M777.826 471.732C764.297 455.36 728.155 450.123 711.774 449.552C722.068 441.611 725.785 416.996 726.357 405.681L803.438 275.906C826.28 296.886 823.494 425.737 819.246 487.54C811.076 489.092 791.355 488.104 777.826 471.732Z" fill="#D9CF16"/>
<path d="M801.23 452.736V292.694L967.401 286.566V448.447L801.23 452.736Z" fill="#104C42"/>
<path d="M871.204 452.861L868.386 289.754C875.861 288.283 892.527 287.63 900.615 288.651L906.374 452.861H871.204Z" fill="#DCD676"/>
<path d="M841.363 248.8C841.363 258.4 862.697 279.8 873.363 289.3H900.363C918.363 277.3 954.263 252 953.863 246.8C953.363 240.3 939.363 242.3 932.363 242.3C925.363 242.3 925.863 228.3 913.863 226.8C904.263 225.6 888.863 266.3 882.363 286.8C882.53 266.8 881.263 226.3 874.863 224.3C866.863 221.8 865.363 232.8 860.863 239.8C856.363 246.8 841.363 236.8 841.363 248.8Z" fill="#DCD676"/>
<path d="M812.629 281.418C810.08 283.477 805.194 278.926 803.07 276.394C793.021 266.917 772.949 247.522 773.047 245.758C773.169 243.552 781.625 242.326 794.369 248.944C804.565 254.238 813.65 268.551 816.918 275.046C816.55 276.312 815.177 279.359 812.629 281.418Z" fill="#534F18"/>
<path d="M773.905 246.251L784.934 232.281L813.732 244.413C808.928 246.962 802.662 259.2 800.13 265.001C796.699 256.668 781.217 249.029 773.905 246.251Z" fill="#FC6F66"/>
<path d="M648.541 413.399C641.973 428.987 654.709 451.347 661.899 460.579C663.369 450.775 680.158 430.556 703.686 417.321C727.215 404.086 769.615 374.43 786.894 348.573C804.173 322.717 803.683 301.394 804.908 282.522C805.888 267.425 779.419 256.951 766.062 253.602C763.978 254.745 756.43 260.023 742.901 271.983C725.99 286.934 710.059 343.672 695.231 366.71C683.369 385.141 659.162 405.516 648.541 413.399Z" fill="#A69F37"/>
<path d="M770.351 370.879C785.465 384.726 817.947 412.642 826.967 413.524C838.241 414.627 853.559 413.157 858.093 415.117C862.627 417.078 877.087 415.608 876.842 418.916C876.597 422.225 854.539 419.039 855.519 423.328C856.5 427.617 874.024 446.611 876.842 448.695C879.661 450.778 877.577 453.964 875.004 453.106C873.047 452.454 867.982 449.831 865.346 448.415C867.964 449.842 872.436 452.6 872.063 453.719C871.573 455.189 870.47 455.312 867.284 454.209C865.029 453.429 862.288 452.079 860.809 451.297C863.438 452.724 867.743 455.251 867.284 455.802C866.671 456.537 863.485 457.028 861.647 456.415C860.443 456.014 857.626 454.327 855.68 453.101C858.088 454.685 861.221 457.015 860.299 457.518C858.951 458.253 858.461 458.621 855.519 457.518C852.578 456.415 845.961 452.984 841.549 451.023C837.138 449.062 823.29 430.558 817.531 428.72C811.771 426.882 749.886 396.491 745.597 393.55C742.166 391.197 758.709 377.455 767.41 370.879H770.351Z" fill="#FC6F66"/>
<path d="M722.313 372.716C723.784 381.147 730.034 383.826 732.975 384.112C736.814 387.462 744.861 394.308 746.332 394.896C748.17 395.632 774.64 372.716 769.248 368.304C763.856 363.893 764.346 352.986 767.777 340.119C771.208 327.252 784.075 301.763 780.154 286.2C776.233 270.636 767.777 267.328 757.116 271.249C746.454 275.171 734.2 294.9 727.338 311.811C720.475 328.722 720.475 362.177 722.313 372.716Z" fill="#BDB533"/>
<path d="M804.418 264.878C800.252 258.628 773.169 244.658 771.576 244.535C765.4 249.535 763.693 253.808 763.611 255.319C775.988 266.062 800.815 286.935 801.109 284.485C801.477 281.421 808.585 271.127 804.418 264.878Z" fill="#807A2A"/>
<path d="M823.289 212.918C822.211 211.839 821.369 203.237 821.084 199.07L795.962 202.134C791.428 206.341 781.404 215.222 777.58 217.084C772.801 219.413 775.375 225.662 781.012 231.299C785.521 235.809 787.629 235.221 788.119 234.363C789.467 238.162 803.437 247.72 812.015 247.965C820.593 248.211 827.823 245.515 828.926 243.309C830.029 241.103 826.108 227.991 826.353 225.662C826.598 223.334 829.171 224.56 831.377 222.476C833.583 220.393 824.637 214.266 823.289 212.918Z" fill="#FC6F66"/>
<path d="M793.023 214.757C800.866 212.306 800.948 205.648 800.008 202.625C785.997 205.525 757.975 212.625 757.975 217.82C757.975 224.315 755.401 226.766 754.666 226.889C753.931 227.011 759.813 227.501 759.445 228.482C759.151 229.266 754.421 231.995 752.093 233.261L757.975 235.099C756.259 235.467 753.342 236.398 755.401 237.182C757.46 237.967 762.223 237.509 764.347 237.182C764.347 237.918 763.931 239.633 762.264 240.614C760.181 241.839 768.146 243.31 776.602 240.614C785.058 237.918 784.69 233.874 783.219 232.281C781.749 230.688 775.377 223.58 776.602 219.781C777.828 215.982 783.219 217.82 793.023 214.757Z" fill="#161616"/>
<path d="M802.825 202.134L757.239 220.761C755.727 211.937 753.611 192.428 757.239 184.978C761.773 175.664 775.253 167.331 793.879 167.821C808.781 168.214 816.673 179.422 818.756 184.978H844C845.103 185.59 845.446 188.311 837.995 194.291C830.545 200.271 811.444 202.011 802.825 202.134Z" fill="#165B50"/>
</svg>
